<svg version="1.2" xmlns="http://www.w3.org/2000/svg" viewBox="0 0 1440 320" width="1440" height="320">
	<title>1-svg</title>
	<style>
		.s0 { fill: #0099ff } 
	</style>
	<path id="Layer" class="s0" d="m0 128l40-10.7c40-10.3 120-32.3 200-26.6 80 5.3 160 37.3 240 74.6 80 37.7 160 79.7 240 90.7 80 11 160-11 240-32 80-21 160-43 240-26.7 80 15.7 160 69.7 200 96l40 26.7h-40c-40 0-120 0-200 0q-120 0-240 0-120 0-240 0-120 0-240 0-120 0-240 0c-80 0-160 0-200 0h-40z"/>
	<rect width="1440" height="320" id="Color Fill 1" style="fill: #f2faff"/>
</svg>