<svg xmlns="http://www.w3.org/2000/svg" width="430" height="430" style="width:100%;height:100%;transform:translate3d(0,0,0);content-visibility:visible" viewBox="0 0 430 430"><defs><clipPath id="c"><path d="M0 0h430v430H0z"/></clipPath><clipPath id="d"><path d="M0 0h430v430H0z"/></clipPath><filter id="a" width="100%" height="100%" x="0%" y="0%" filterUnits="objectBoundingBox"><feComponentTransfer in="SourceGraphic"><feFuncA tableValues="1.0 0.0" type="table"/></feComponentTransfer></filter><mask id="e" mask-type="alpha"><g filter="url(#a)"><path fill="#fff" d="M0 0h430v430H0z" opacity="0"/><use xmlns:ns1="http://www.w3.org/1999/xlink" ns1:href="#b"/></g></mask><g id="b" style="display:block"><path fill="red" d="M-92.5 115.452v195h119v-195h-119z"/><path fill-opacity="0" stroke="#121331" stroke-width="0" d="M-92.5 115.452v195h119v-195h-119z"/></g></defs><g clip-path="url(#c)"><g clip-path="url(#d)" style="display:block"><path fill="#3A3347" d="M30.164-18.455h-.026a3.5 3.5 0 0 0-3.499 3.474l-.001.026h-53.276l-.001-.026a3.5 3.5 0 0 0-3.499-3.474h-.026a3.5 3.5 0 0 0-3.475 3.525C-33.505 3.479-18.415 18.455 0 18.455c18.415 0 33.505-14.976 33.639-33.385a3.5 3.5 0 0 0-3.475-3.525z" class="tertiary" style="display:block" transform="translate(272.01 302.172)"/><path fill="#3A3347" d="M30.17-18.455h-.026a3.5 3.5 0 0 0-3.499 3.474l-.001.026h-53.288l-.001-.026a3.5 3.5 0 0 0-3.499-3.474h-.026a3.5 3.5 0 0 0-3.475 3.525c.134 18.409 15.224 33.385 33.639 33.385 18.421 0 33.517-14.976 33.651-33.385a3.5 3.5 0 0 0-3.475-3.525z" class="tertiary" style="display:block" transform="translate(183.245 302.172)"/><g mask="url(#e)" style="display:block"><path fill="#EBE6EF" d="m380.844 288.965-380.151-.08v-153.84l234.5.08c35.05 0 68.121 10.35 95.541 28.41 24.87 16.36 45.1 39.06 57.94 66.12a156.097 156.097 0 0 1 8.899 23.27l1.141 3.88 1.75 5.95c3.85 13.09-5.97 26.21-19.62 26.21z" class="secondary"/><path fill="#EBE6EF" d="M16.415-76.92V76.92l-27.023-.08V-77l27.023.08z" class="secondary" opacity=".5" style="mix-blend-mode:multiply" transform="translate(37.108 212.042)"/><path fill="#3A3347" d="M388.673 229.655c-.46.23-.98.35-1.52.35h-89.62c-1.05 0-2.05-.48-2.72-1.3l-48.17-59.47a3.5 3.5 0 0 1-.44-3.71 3.51 3.51 0 0 1 3.16-1.99h81.37c24.87 16.36 45.1 39.06 57.94 66.12zM.694 222.925v-59.47l124.3.08c10.2 0 18.51 9.26 18.51 20.64v25.2c0 11.37-8.31 20.63-18.51 20.63l-124.3-.08v-7z" class="tertiary"/><path fill="#3A3347" d="M16.415-33.235v66.47l-27.023-.08v-66.47l27.023.08z" class="tertiary" opacity=".5" style="mix-blend-mode:multiply" transform="translate(37.108 196.77)"/><path fill="#3A3347" d="M39.36 33.235H12.31c-1.05 0-2.05-.48-2.72-1.3l-48.17-59.47a3.5 3.5 0 0 1-.44-3.71 3.51 3.51 0 0 1 3.16-1.99h24.75l50.47 66.47z" class="tertiary" opacity=".5" style="mix-blend-mode:multiply" transform="translate(285.223 196.77)"/></g><path fill="none" stroke="#121331" stroke-linecap="round" stroke-linejoin="round" stroke-width="7" d="M-30.139-14.955C-30.019 1.579-16.57 14.955 0 14.955s30.019-13.376 30.139-29.91" class="primary" style="display:block" transform="translate(271.51 303.428)"/><path fill="none" stroke="#121331" stroke-linecap="round" stroke-linejoin="round" stroke-width="7" d="M-30.145-14.955c.12 16.534 13.569 29.91 30.139 29.91 16.582 0 30.031-13.376 30.151-29.91" class="primary" style="display:block" transform="translate(182.745 303.428)"/><g fill="none" stroke="#121331" stroke-linecap="round" stroke-linejoin="round" stroke-width="7" style="display:block"><path d="M397.078 253.013H27.194m0-118.385h207.498c75.58 0 141.935 48.135 162.386 117.798l2.887 9.835c3.844 13.094-5.973 26.207-19.62 26.207H27.194" class="primary"/><path d="M335.347 166.542h-86.485l48.168 59.468h89.626M27.194 166.542h101.301c8.287 0 15.005 7.671 15.005 17.134v25.2c0 9.463-6.718 17.134-15.005 17.134H27.194m-.506-91.385.062 154" class="primary"/></g><path fill="none" stroke="#121331" stroke-linecap="round" stroke-linejoin="round" stroke-width="7" d="M186.806 0h-373.612" class="primary" style="display:block" transform="translate(214 318.383)"/><path fill="none" stroke="#EBE6EF" stroke-linecap="round" stroke-linejoin="round" stroke-width="7" d="M0 0" class="secondary" style="display:block" transform="translate(215 215)"/><path fill="none" class="secondary" style="display:none"/><path fill="none" class="secondary" style="display:none"/><path fill="none" class="secondary" style="display:none"/><path fill="none" class="secondary" style="display:none"/><path fill="none" class="secondary" style="display:none"/><path fill="none" class="secondary" style="display:none"/></g></g></svg>