<svg xmlns="http://www.w3.org/2000/svg" xmlns:xlink="http://www.w3.org/1999/xlink" viewBox="0 0 430 430" width="430" height="430" preserveAspectRatio="xMidYMid meet" style="width: 100%; height: 100%; transform: translate3d(0px, 0px, 0px); content-visibility: visible;"><defs><clipPath id="__lottie_element_59"><rect width="430" height="430" x="0" y="0"/></clipPath><clipPath id="__lottie_element_61"><path d="M0,0 L430,0 L430,430 L0,430z"/></clipPath><g id="__lottie_element_83"><g transform="matrix(1,0,0,1,-35,-33)" opacity="1" style="display: block;"><g opacity="1" transform="matrix(1,0,0,1,250.06100463867188,345.1029968261719)"><path fill="rgb(178,104,54)" fill-opacity="1" d=" M124.5,34.494998931884766 C124.5,34.494998931884766 124.5,62.26499938964844 124.5,62.26499938964844 C124.5,69.88500213623047 118.79000091552734,76.29499816894531 111.22000122070312,77.16500091552734 C111.22000122070312,77.16500091552734 82.18000030517578,80.5250015258789 82.18000030517578,80.5250015258789 C74.23999786376953,81.44499969482422 66.4800033569336,83.4749984741211 59.11000061035156,86.55500030517578 C40.11000061035156,94.50499725341797 19.90999984741211,98.4749984741211 -0.30000001192092896,98.4749984741211 C-20.399999618530273,98.4749984741211 -40.5,94.54499816894531 -59.41999816894531,86.67500305175781 C-59.41999816894531,86.67500305175781 -59.619998931884766,86.59500122070312 -59.619998931884766,86.59500122070312 C-67.30999755859375,83.3949966430664 -75.41000366210938,81.28500366210938 -83.69000244140625,80.33499908447266 C-83.69000244140625,80.33499908447266 -111.22000122070312,77.16500091552734 -111.22000122070312,77.16500091552734 C-118.79000091552734,76.28500366210938 -124.5,69.875 -124.5,62.26499938964844 C-124.5,62.26499938964844 -124.5,34.494998931884766 -124.5,34.494998931884766 C-124.5,28.924999237060547 -123.94999694824219,23.475000381469727 -122.9000015258789,18.21500015258789 C-115.33999633789062,-19.825000762939453 -81.7699966430664,-48.505001068115234 -41.5,-48.505001068115234 C-41.5,-48.505001068115234 -33.869998931884766,-48.505001068115234 -33.869998931884766,-48.505001068115234 C-33.869998931884766,-48.505001068115234 -33.869998931884766,-87.0250015258789 -33.869998931884766,-87.0250015258789 C-33.869998931884766,-87.0250015258789 -2.2699999809265137,-98.4749984741211 -2.2699999809265137,-98.4749984741211 C-2.2699999809265137,-98.4749984741211 33.880001068115234,-88.78500366210938 33.880001068115234,-88.78500366210938 C33.880001068115234,-88.78500366210938 33.880001068115234,-48.505001068115234 33.880001068115234,-48.505001068115234 C33.880001068115234,-48.505001068115234 41.5,-48.505001068115234 41.5,-48.505001068115234 C81.7699966430664,-48.505001068115234 115.33999633789062,-19.825000762939453 122.9000015258789,18.21500015258789 C123.94999694824219,23.475000381469727 124.5,28.924999237060547 124.5,34.494998931884766z"/></g></g></g><mask id="__lottie_element_83_1" mask-type="alpha"><use xmlns:ns1="http://www.w3.org/1999/xlink" ns1:href="#__lottie_element_83"/></mask></defs><g clip-path="url(#__lottie_element_59)"><g clip-path="url(#__lottie_element_61)" transform="matrix(1,0,0,1,0,0)" opacity="1" style="display: block;"><g transform="matrix(1,0,0,1,-34.5,-32.5)" opacity="1" style="display: block;"><g opacity="1" transform="matrix(1,0,0,1,249.9949951171875,162.59300231933594)"><path class="secondary" fill="rgb(58,51,71)" fill-opacity="1" d=" M119.88500213623047,-22.16200065612793 C117.8550033569336,-30.04199981689453 106.88600158691406,-40.125999450683594 103.23400115966797,-43.31100082397461 C102.53600311279297,-48.09600067138672 100.01300048828125,-62.73899841308594 94.5790023803711,-68.7509994506836 C89.23400115966797,-74.66699981689453 74.95099639892578,-78.78600311279297 70.22899627685547,-80.0199966430664 C67.5270004272461,-84.04900360107422 59.0099983215332,-96.06400299072266 51.540000915527344,-99.2509994506836 C44.284000396728516,-102.34600067138672 29.600000381469727,-100.28500366210938 24.76799964904785,-99.48500061035156 C20.68000030517578,-102.1050033569336 8.16100025177002,-109.67400360107422 0,-109.67400360107422 C-8.16100025177002,-109.67400360107422 -20.68000030517578,-102.1050033569336 -24.76799964904785,-99.48500061035156 C-29.600000381469727,-100.28500366210938 -44.284000396728516,-102.34600067138672 -51.54100036621094,-99.2509994506836 C-59.01100158691406,-96.06500244140625 -67.52799987792969,-84.0479965209961 -70.2300033569336,-80.0199966430664 C-74.9520034790039,-78.78600311279297 -89.23500061035156,-74.66600036621094 -94.58000183105469,-68.75 C-100.01399993896484,-62.737998962402344 -102.53600311279297,-48.09600067138672 -103.23400115966797,-43.31100082397461 C-106.88600158691406,-40.125999450683594 -117.8550033569336,-30.04199981689453 -119.88500213623047,-22.16200065612793 C-121.87899780273438,-14.423999786376953 -117.12000274658203,-0.1379999965429306 -115.47899627685547,4.40500020980835 C-117.12000274658203,8.949000358581543 -121.87899780273438,23.236000061035156 -119.88500213623047,30.972999572753906 C-117.8550033569336,38.85300064086914 -106.88600158691406,48.9370002746582 -103.23400115966797,52.12200164794922 C-102.53600311279297,56.90800094604492 -100.01300048828125,71.55000305175781 -94.5790023803711,77.56199645996094 C-89.23400115966797,83.47799682617188 -74.95099639892578,87.5979995727539 -70.22899627685547,88.83200073242188 C-67.5270004272461,92.86100006103516 -59.0099983215332,104.8759994506836 -51.540000915527344,108.06199645996094 C-49.26599884033203,109.03199768066406 -46.994998931884766,109.51300048828125 -43.95000076293945,109.66899871826172 C-43.888999938964844,109.6719970703125 -43.82899856567383,109.6729965209961 -43.768001556396484,109.6729965209961 C-41.91699981689453,109.6729965209961 -40.37200164794922,108.22200012207031 -40.2760009765625,106.35299682617188 C-40.27299880981445,106.29199981689453 -40.284000396728516,106.23400115966797 -40.284000396728516,106.17400360107422 C-40.284000396728516,106.17400360107422 40.28300094604492,106.17400360107422 40.28300094604492,106.17400360107422 C40.28300094604492,106.22100067138672 40.27199935913086,106.26599884033203 40.27399826049805,106.31300354003906 C40.35100173950195,108.24500274658203 41.98699951171875,109.75199890136719 43.90999984741211,109.6709976196289 C47.053001403808594,109.5459976196289 49.04999923706055,109.1240005493164 51.54100036621094,108.06199645996094 C59.0099983215332,104.875 67.52799987792969,92.86000061035156 70.2300033569336,88.83100128173828 C74.9520034790039,87.59700012207031 89.23500061035156,83.47799682617188 94.58000183105469,77.56199645996094 C100.01399993896484,71.55000305175781 102.53600311279297,56.90800094604492 103.23400115966797,52.12200164794922 C106.88600158691406,48.9370002746582 117.8550033569336,38.85300064086914 119.88500213623047,30.972999572753906 C121.87899780273438,23.236000061035156 117.12000274658203,8.949000358581543 115.47899627685547,4.40500020980835 C117.12000274658203,-0.13899999856948853 121.87899780273438,-14.425000190734863 119.88500213623047,-22.16200065612793z"/></g><g opacity="0.5" transform="matrix(1,0,0,1,249.9949951171875,162.59500122070312)" style="mix-blend-mode: multiply;"><path class="secondary" fill="rgb(58,51,71)" fill-opacity="1" d=" M119.88300323486328,-22.16699981689453 C117.85299682617188,-30.047000885009766 106.88300323486328,-40.12699890136719 103.23300170898438,-43.31700134277344 C102.53299713134766,-48.09700012207031 100.01300048828125,-62.73699951171875 94.58300018310547,-68.75700378417969 C89.23300170898438,-74.66699981689453 74.9530029296875,-78.78700256347656 70.23300170898438,-80.0270004272461 C67.52300262451172,-84.0469970703125 59.01300048828125,-96.06700134277344 51.542999267578125,-99.25700378417969 C44.28300094604492,-102.34700012207031 29.60300064086914,-100.28700256347656 24.773000717163086,-99.48699951171875 C20.683000564575195,-102.10700225830078 8.163000106811523,-109.677001953125 0.003000000026077032,-109.677001953125 C-8.156999588012695,-109.677001953125 -20.677000045776367,-102.10700225830078 -24.767000198364258,-99.48699951171875 C-29.597000122070312,-100.28700256347656 -44.2869987487793,-102.34700012207031 -51.5369987487793,-99.25700378417969 C-59.00699996948242,-96.06700134277344 -67.5270004272461,-84.0469970703125 -70.22699737548828,-80.0270004272461 C-74.9469985961914,-78.78700256347656 -89.23699951171875,-74.66699981689453 -94.5770034790039,-68.75700378417969 C-100.01699829101562,-62.73699951171875 -102.53700256347656,-48.09700012207031 -103.23699951171875,-43.31700134277344 C-106.88700103759766,-40.12699890136719 -117.85700225830078,-30.047000885009766 -119.88700103759766,-22.16699981689453 C-121.87699890136719,-14.427000045776367 -117.11699676513672,-0.13699999451637268 -115.47699737548828,4.4029998779296875 C-117.11699676513672,8.942999839782715 -121.87699890136719,23.232999801635742 -119.88700103759766,30.972999572753906 C-117.85700225830078,38.85300064086914 -106.88700103759766,48.93299865722656 -103.23699951171875,52.12300109863281 C-102.53700256347656,56.90299987792969 -100.01699829101562,71.54299926757812 -94.5770034790039,77.56300354003906 C-89.23699951171875,83.4729995727539 -74.9469985961914,87.59300231933594 -70.22699737548828,88.83300018310547 C-67.5270004272461,92.85299682617188 -59.00699996948242,104.87300109863281 -51.5369987487793,108.06300354003906 C-49.266998291015625,109.03299713134766 -46.99700164794922,109.51300048828125 -43.946998596191406,109.66300201416016 C-43.887001037597656,109.6729965209961 -43.82699966430664,109.6729965209961 -43.766998291015625,109.6729965209961 C-41.91699981689453,109.6729965209961 -40.367000579833984,108.2229995727539 -40.277000427246094,106.35299682617188 C-40.277000427246094,106.29299926757812 -40.2869987487793,106.23300170898438 -40.2869987487793,106.1729965209961 C-40.2869987487793,106.1729965209961 40.28300094604492,106.1729965209961 40.28300094604492,106.1729965209961 C40.28300094604492,106.2229995727539 40.27299880981445,106.26300048828125 40.27299880981445,106.31300354003906 C40.35300064086914,108.24299621582031 41.983001708984375,109.75299835205078 43.91299819946289,109.6729965209961 C47.053001403808594,109.54299926757812 49.053001403808594,109.12300109863281 51.542999267578125,108.06300354003906 C59.01300048828125,104.87300109863281 67.52300262451172,92.85299682617188 70.23300170898438,88.83300018310547 C74.9530029296875,87.59300231933594 89.23300170898438,83.4729995727539 94.58300018310547,77.56300354003906 C100.01300048828125,71.54299926757812 102.53299713134766,56.90299987792969 103.23300170898438,52.12300109863281 C106.88300323486328,48.93299865722656 117.85299682617188,38.85300064086914 119.88300323486328,30.972999572753906 C121.88300323486328,23.232999801635742 117.12300109863281,8.942999839782715 115.48300170898438,4.4029998779296875 C117.12300109863281,-0.13699999451637268 121.88300323486328,-14.427000045776367 119.88300323486328,-22.16699981689453z M117.48999786376953,28.66200065612793 C115.6050033569336,35.95399856567383 105.45899963378906,45.279998779296875 102.0770034790039,48.23099899291992 C101.43099975585938,52.65800094604492 99.1050033569336,66.20700073242188 94.07499694824219,71.76499938964844 C89.12100219726562,77.24700164794922 75.90599822998047,81.04900360107422 71.54399871826172,82.20099639892578 C69.04499816894531,85.9280014038086 61.1609992980957,97.04299926757812 54.24599838256836,99.99400329589844 C51.941001892089844,100.9739990234375 50.099998474121094,101.36199951171875 47.180999755859375,101.4800033569336 C45.40399932861328,101.55500030517578 43.895999908447266,100.15499877929688 43.82099914550781,98.36699676513672 C43.82099914550781,98.3239974975586 43.832000732421875,98.29199981689453 43.832000732421875,98.23799896240234 C43.832000732421875,98.23799896240234 -30.72100067138672,98.23799896240234 -30.72100067138672,98.23799896240234 C-30.72100067138672,98.3030014038086 -30.709999084472656,98.35600280761719 -30.709999084472656,98.41000366210938 C-30.80699920654297,100.13300323486328 -32.22800064086914,101.4800033569336 -33.941001892089844,101.4800033569336 C-33.941001892089844,101.4800033569336 -34.112998962402344,101.4800033569336 -34.112998962402344,101.4800033569336 C-36.935001373291016,101.3290023803711 -39.0359992980957,100.88800048828125 -41.13600158691406,99.99400329589844 C-48.05099868774414,97.04299926757812 -55.933998107910156,85.9280014038086 -58.43299865722656,82.20099639892578 C-62.79499816894531,81.05899810791016 -76.0199966430664,77.24700164794922 -80.96399688720703,71.76499938964844 C-85.99400329589844,66.20700073242188 -88.32099914550781,52.65800094604492 -88.96700286865234,48.23099899291992 C-92.3489990234375,45.279998779296875 -102.50499725341797,35.95399856567383 -104.37899780273438,28.66200065612793 C-106.22100067138672,21.5 -101.81600189208984,8.284000396728516 -100.2969970703125,4.072999954223633 C-101.81600189208984,-0.12700000405311584 -106.22100067138672,-13.352999687194824 -104.37899780273438,-20.5049991607666 C-102.50499725341797,-27.79599952697754 -92.3489990234375,-37.13399887084961 -88.96700286865234,-40.07400131225586 C-88.32099914550781,-44.51100158691406 -85.99400329589844,-58.06100082397461 -80.96399688720703,-63.61800003051758 C-76.0199966430664,-69.08899688720703 -62.79499816894531,-72.9020004272461 -58.43299865722656,-74.04399871826172 C-55.933998107910156,-77.77100372314453 -48.05099868774414,-88.89700317382812 -41.13600158691406,-91.83699798583984 C-34.42599868774414,-94.7020034790039 -20.833999633789062,-92.79499816894531 -16.36400032043457,-92.06300354003906 C-12.583999633789062,-94.48600006103516 -0.9950000047683716,-101.48699951171875 6.554999828338623,-101.48699951171875 C14.104999542236328,-101.48699951171875 25.69499969482422,-94.48600006103516 29.475000381469727,-92.06300354003906 C33.94499969482422,-92.79499816894531 47.5359992980957,-94.70099639892578 54.24599838256836,-91.84700012207031 C61.1609992980957,-88.89600372314453 69.04499816894531,-77.77100372314453 71.54399871826172,-74.04399871826172 C75.90599822998047,-72.9020004272461 89.12100219726562,-69.08899688720703 94.07499694824219,-63.61800003051758 C99.1050033569336,-58.06100082397461 101.43099975585938,-44.51100158691406 102.0770034790039,-40.07400131225586 C105.45899963378906,-37.13399887084961 115.6050033569336,-27.79599952697754 117.48999786376953,-20.5049991607666 C119.33200073242188,-13.352999687194824 114.927001953125,-0.12700000405311584 113.40799713134766,4.072999954223633 C114.927001953125,8.284000396728516 119.33200073242188,21.5 117.48999786376953,28.66200065612793z"/></g><g opacity="1" transform="matrix(1,0,0,1,249.9949951171875,162.59300231933594)"><path stroke-linecap="round" stroke-linejoin="round" fill-opacity="0" class="primary" stroke="rgb(18,19,49)" stroke-opacity="1" stroke-width="7" d=" M119.88500213623047,-22.16200065612793 C117.8550033569336,-30.04199981689453 106.88600158691406,-40.125999450683594 103.23400115966797,-43.31100082397461 C102.53600311279297,-48.09600067138672 100.01300048828125,-62.73899841308594 94.5790023803711,-68.7509994506836 C89.23400115966797,-74.66699981689453 74.95099639892578,-78.78600311279297 70.22899627685547,-80.0199966430664 C67.5270004272461,-84.04900360107422 59.0099983215332,-96.06400299072266 51.540000915527344,-99.2509994506836 C44.284000396728516,-102.34600067138672 29.600000381469727,-100.28500366210938 24.76799964904785,-99.48500061035156 C20.68000030517578,-102.1050033569336 8.16100025177002,-109.67400360107422 0,-109.67400360107422 C-8.16100025177002,-109.67400360107422 -20.68000030517578,-102.1050033569336 -24.76799964904785,-99.48500061035156 C-29.600000381469727,-100.28500366210938 -44.284000396728516,-102.34600067138672 -51.54100036621094,-99.2509994506836 C-59.01100158691406,-96.06500244140625 -67.52799987792969,-84.0479965209961 -70.2300033569336,-80.0199966430664 C-74.9520034790039,-78.78600311279297 -89.23500061035156,-74.66600036621094 -94.58000183105469,-68.75 C-100.01399993896484,-62.737998962402344 -102.53600311279297,-48.09600067138672 -103.23400115966797,-43.31100082397461 C-106.88600158691406,-40.125999450683594 -117.8550033569336,-30.04199981689453 -119.88500213623047,-22.16200065612793 C-121.87899780273438,-14.423999786376953 -117.12000274658203,-0.1379999965429306 -115.47899627685547,4.40500020980835 C-117.12000274658203,8.949000358581543 -121.87899780273438,23.236000061035156 -119.88500213623047,30.972999572753906 C-117.8550033569336,38.85300064086914 -106.88600158691406,48.9370002746582 -103.23400115966797,52.12200164794922 C-102.53600311279297,56.90800094604492 -100.01300048828125,71.55000305175781 -94.5790023803711,77.56199645996094 C-89.23400115966797,83.47799682617188 -74.95099639892578,87.5979995727539 -70.22899627685547,88.83200073242188 C-67.5270004272461,92.86100006103516 -59.0099983215332,104.8759994506836 -51.540000915527344,108.06199645996094 C-49.26599884033203,109.03199768066406 -46.994998931884766,109.51300048828125 -43.95000076293945,109.66899871826172 C-43.888999938964844,109.6719970703125 -43.82899856567383,109.6729965209961 -43.768001556396484,109.6729965209961 C-41.91699981689453,109.6729965209961 -40.37200164794922,108.22200012207031 -40.2760009765625,106.35299682617188 C-40.27299880981445,106.29199981689453 -40.284000396728516,106.23400115966797 -40.284000396728516,106.17400360107422 C-40.284000396728516,106.17400360107422 40.28300094604492,106.17400360107422 40.28300094604492,106.17400360107422 C40.28300094604492,106.22100067138672 40.27199935913086,106.26599884033203 40.27399826049805,106.31300354003906 C40.35100173950195,108.24500274658203 41.98699951171875,109.75199890136719 43.90999984741211,109.6709976196289 C47.053001403808594,109.5459976196289 49.04999923706055,109.1240005493164 51.54100036621094,108.06199645996094 C59.0099983215332,104.875 67.52799987792969,92.86000061035156 70.2300033569336,88.83100128173828 C74.9520034790039,87.59700012207031 89.23500061035156,83.47799682617188 94.58000183105469,77.56199645996094 C100.01399993896484,71.55000305175781 102.53600311279297,56.90800094604492 103.23400115966797,52.12200164794922 C106.88600158691406,48.9370002746582 117.8550033569336,38.85300064086914 119.88500213623047,30.972999572753906 C121.87899780273438,23.236000061035156 117.12000274658203,8.949000358581543 115.47899627685547,4.40500020980835 C117.12000274658203,-0.13899999856948853 121.87899780273438,-14.425000190734863 119.88500213623047,-22.16200065612793z"/></g></g><g transform="matrix(1,0,0,1,-35,-33)" opacity="1" style="display: block;"><g opacity="1" transform="matrix(1,0,0,1,250.06100463867188,345.1029968261719)"><path class="tertiary" fill="rgb(178,104,54)" fill-opacity="1" d=" M124.5,34.494998931884766 C124.5,34.494998931884766 124.5,62.26499938964844 124.5,62.26499938964844 C124.5,69.88500213623047 118.79000091552734,76.29499816894531 111.22000122070312,77.16500091552734 C111.22000122070312,77.16500091552734 82.18000030517578,80.5250015258789 82.18000030517578,80.5250015258789 C74.23999786376953,81.44499969482422 66.4800033569336,83.4749984741211 59.11000061035156,86.55500030517578 C40.11000061035156,94.50499725341797 19.90999984741211,98.4749984741211 -0.30000001192092896,98.4749984741211 C-20.399999618530273,98.4749984741211 -40.5,94.54499816894531 -59.41999816894531,86.67500305175781 C-59.41999816894531,86.67500305175781 -59.619998931884766,86.59500122070312 -59.619998931884766,86.59500122070312 C-67.30999755859375,83.3949966430664 -75.41000366210938,81.28500366210938 -83.69000244140625,80.33499908447266 C-83.69000244140625,80.33499908447266 -111.22000122070312,77.16500091552734 -111.22000122070312,77.16500091552734 C-118.79000091552734,76.28500366210938 -124.5,69.875 -124.5,62.26499938964844 C-124.5,62.26499938964844 -124.5,34.494998931884766 -124.5,34.494998931884766 C-124.5,28.924999237060547 -123.94999694824219,23.475000381469727 -122.9000015258789,18.21500015258789 C-115.33999633789062,-19.825000762939453 -81.7699966430664,-48.505001068115234 -41.5,-48.505001068115234 C-41.5,-48.505001068115234 -33.869998931884766,-48.505001068115234 -33.869998931884766,-48.505001068115234 C-33.869998931884766,-48.505001068115234 -33.869998931884766,-87.0250015258789 -33.869998931884766,-87.0250015258789 C-33.869998931884766,-87.0250015258789 -2.2699999809265137,-98.4749984741211 -2.2699999809265137,-98.4749984741211 C-2.2699999809265137,-98.4749984741211 33.880001068115234,-88.78500366210938 33.880001068115234,-88.78500366210938 C33.880001068115234,-88.78500366210938 33.880001068115234,-48.505001068115234 33.880001068115234,-48.505001068115234 C33.880001068115234,-48.505001068115234 41.5,-48.505001068115234 41.5,-48.505001068115234 C81.7699966430664,-48.505001068115234 115.33999633789062,-19.825000762939453 122.9000015258789,18.21500015258789 C123.94999694824219,23.475000381469727 124.5,28.924999237060547 124.5,34.494998931884766z"/></g><g opacity="0.5" transform="matrix(1,0,0,1,204.677001953125,335.4129943847656)" style="mix-blend-mode: multiply;"><path class="tertiary" fill="rgb(178,104,54)" fill-opacity="1" d=" M43.09700012207031,-88.78500366210938 C43.09700012207031,-88.78500366210938 11.496999740600586,-77.33499908447266 11.496999740600586,-77.33499908447266 C11.496999740600586,-77.33499908447266 11.496999740600586,-38.814998626708984 11.496999740600586,-38.814998626708984 C11.496999740600586,-38.814998626708984 3.867000102996826,-38.814998626708984 3.867000102996826,-38.814998626708984 C-36.40299987792969,-38.814998626708984 -69.9729995727539,-10.135000228881836 -77.53299713134766,27.905000686645508 C-77.53299713134766,27.905000686645508 -77.64700317382812,27.905000686645508 -77.64700317382812,27.905000686645508 C-78.6969985961914,33.165000915527344 -79.24700164794922,38.6150016784668 -79.24700164794922,44.185001373291016 C-79.24700164794922,44.185001373291016 -79.24700164794922,71.95500183105469 -79.24700164794922,71.95500183105469 C-79.24700164794922,79.56500244140625 -73.53700256347656,85.9749984741211 -65.96700286865234,86.8550033569336 C-65.96700286865234,86.8550033569336 -49.24700164794922,88.78500366210938 -49.24700164794922,88.78500366210938 C-49.24700164794922,88.78500366210938 -49.24700164794922,44.185001373291016 -49.24700164794922,44.185001373291016 C-49.24700164794922,38.6150016784668 -48.696998596191406,33.165000915527344 -47.64699935913086,27.905000686645508 C-47.64699935913086,27.905000686645508 -47.53300094604492,27.905000686645508 -47.53300094604492,27.905000686645508 C-40.01300048828125,-44.96500015258789 55.32699966430664,-18.325000762939453 79.24700164794922,-57.275001525878906 C79.24700164794922,-57.275001525878906 79.24700164794922,-79.09500122070312 79.24700164794922,-79.09500122070312 C79.24700164794922,-79.09500122070312 43.09700012207031,-88.78500366210938 43.09700012207031,-88.78500366210938z"/></g></g><g mask="url(#__lottie_element_83_1)" style="display: block;"><g transform="matrix(1,0,0,1,-35,-33)" opacity="1"><g opacity="1" transform="matrix(1,0,0,1,250.06100463867188,403.447998046875)"><path class="quaternary" fill="rgb(242,139,168)" fill-opacity="1" d=" M124.5,-23.850000381469727 C124.5,-23.850000381469727 124.61000061035156,90.41999816894531 124.61000061035156,90.41999816894531 C124.61000061035156,98.04000091552734 118.9000015258789,104.44999694824219 111.33000183105469,105.31999969482422 C111.33000183105469,105.31999969482422 82.29000091552734,108.68000030517578 82.29000091552734,108.68000030517578 C74.3499984741211,109.5999984741211 66.58999633789062,111.62999725341797 59.220001220703125,114.70999908447266 C40.220001220703125,122.66000366210938 20.020000457763672,126.62999725341797 -0.1899999976158142,126.62999725341797 C-20.290000915527344,126.62999725341797 -40.38999938964844,122.69999694824219 -59.310001373291016,114.83000183105469 C-59.310001373291016,114.83000183105469 -59.5099983215332,114.75 -59.5099983215332,114.75 C-67.19999694824219,111.55000305175781 -75.30000305175781,109.44000244140625 -83.58000183105469,108.48999786376953 C-83.58000183105469,108.48999786376953 -111.11000061035156,105.31999969482422 -111.11000061035156,105.31999969482422 C-118.68000030517578,104.44000244140625 -124.38999938964844,98.02999877929688 -124.38999938964844,90.41999816894531 C-124.38999938964844,90.41999816894531 -124.5,-23.850000381469727 -124.5,-23.850000381469727 C-124.5,-29.420000076293945 -123.94999694824219,-34.869998931884766 -122.9000015258789,-40.130001068115234 C-122.9000015258789,-40.130001068115234 -61.459999084472656,-40.130001068115234 -61.459999084472656,-40.130001068115234 C-61.459999084472656,-40.130001068115234 -22.149999618530273,-33.40999984741211 -6.409999847412109,-25.350000381469727 C-2.380000114440918,-23.290000915527344 2.3499999046325684,-23.34000015258789 6.360000133514404,-25.440000534057617 C21.690000534057617,-33.459999084472656 59.439998626708984,-40.130001068115234 59.439998626708984,-40.130001068115234 C59.439998626708984,-40.130001068115234 122.9000015258789,-40.130001068115234 122.9000015258789,-40.130001068115234 C123.94999694824219,-34.869998931884766 124.5,-29.420000076293945 124.5,-23.850000381469727z"/></g><g opacity="0.5" transform="matrix(1,0,0,1,141.22900390625,393.75799560546875)" style="mix-blend-mode: multiply;"><path class="quaternary" fill="rgb(242,139,168)" fill-opacity="1" d=" M-14.199999809265137,-30.440000534057617 C-14.199999809265137,-30.440000534057617 15.800000190734863,-30.440000534057617 15.800000190734863,-30.440000534057617 C14.75,-25.18000030517578 14.199999809265137,-19.729999542236328 14.199999809265137,-14.15999984741211 C14.199999809265137,-14.15999984741211 14.3100004196167,116.94000244140625 14.3100004196167,116.94000244140625 C14.3100004196167,116.94000244140625 -2.4100000858306885,115.01000213623047 -2.4100000858306885,115.01000213623047 C-9.979999542236328,114.12999725341797 -15.6899995803833,107.72000122070312 -15.6899995803833,100.11000061035156 C-15.6899995803833,100.11000061035156 -15.800000190734863,-14.15999984741211 -15.800000190734863,-14.15999984741211 C-15.800000190734863,-19.729999542236328 -15.25,-25.18000030517578 -14.199999809265137,-30.440000534057617z"/></g></g></g><g transform="matrix(1,0,0,1,215,237)" opacity="1" style="display: block;"><g opacity="1" transform="matrix(1,0,0,1,0,0)"><path stroke-linecap="round" stroke-linejoin="round" fill-opacity="0" class="primary" stroke="rgb(18,19,49)" stroke-opacity="1" stroke-width="7" d=" M-61.459999084472656,93.41000366210938 C-61.459999084472656,93.41000366210938 -61.459999084472656,29.110000610351562 -61.459999084472656,29.110000610351562 M59.439998626708984,93.41000366210938 C59.439998626708984,93.41000366210938 59.439998626708984,28.639999389648438 59.439998626708984,28.639999389648438"/></g><g opacity="1" transform="matrix(1,0,0,1,0,0)"><path stroke-linecap="round" stroke-linejoin="round" fill-opacity="0" class="primary" stroke="rgb(18,19,49)" stroke-opacity="1" stroke-width="7" d=" M-33.869998931884766,7.449999809265137 C-33.869998931884766,7.449999809265137 -33.869998931884766,26.3799991607666 -33.869998931884766,26.3799991607666 C-33.869998931884766,26.479999542236328 -33.869998931884766,26.59000015258789 -33.869998931884766,26.690000534057617 M33.880001068115234,7.440000057220459 C33.880001068115234,7.440000057220459 33.880001068115234,26.3799991607666 33.880001068115234,26.3799991607666 C33.880001068115234,26.479999542236328 33.880001068115234,26.59000015258789 33.880001068115234,26.690000534057617 M33.880001068115234,26.690000534057617 C33.880001068115234,26.690000534057617 41.5,26.690000534057617 41.5,26.690000534057617 C87.33999633789062,26.690000534057617 124.5,63.849998474121094 124.5,109.69000244140625 C124.5,109.69000244140625 124.5,137.4600067138672 124.5,137.4600067138672 C124.5,145.0800018310547 118.79000091552734,151.49000549316406 111.22000122070312,152.36000061035156 C111.22000122070312,152.36000061035156 82.18000030517578,155.72000122070312 82.18000030517578,155.72000122070312 C74.23999786376953,156.63999938964844 66.4800033569336,158.6699981689453 59.11000061035156,161.75 C40.11000061035156,169.6999969482422 19.90999984741211,173.6699981689453 -0.30000001192092896,173.6699981689453 C-20.399999618530273,173.6699981689453 -40.5,169.74000549316406 -59.41999816894531,161.8699951171875 C-59.41999816894531,161.8699951171875 -59.619998931884766,161.7899932861328 -59.619998931884766,161.7899932861328 C-67.30999755859375,158.58999633789062 -75.41000366210938,156.47999572753906 -83.69000244140625,155.52999877929688 C-83.69000244140625,155.52999877929688 -111.22000122070312,152.36000061035156 -111.22000122070312,152.36000061035156 C-118.79000091552734,151.47999572753906 -124.5,145.07000732421875 -124.5,137.4600067138672 C-124.5,137.4600067138672 -124.5,109.69000244140625 -124.5,109.69000244140625 C-124.5,63.849998474121094 -87.33999633789062,26.690000534057617 -41.5,26.690000534057617 C-41.5,26.690000534057617 -33.869998931884766,26.690000534057617 -33.869998931884766,26.690000534057617 M122.9000015258789,93.41000366210938 C122.9000015258789,93.41000366210938 59.439998626708984,93.41000366210938 59.439998626708984,93.41000366210938 C59.439998626708984,93.41000366210938 21.69499969482422,100.0790023803711 6.361000061035156,108.10099792480469 C2.3550000190734863,110.1969985961914 -2.380000114440918,110.25 -6.4039998054504395,108.18900299072266 C-22.145999908447266,100.12699890136719 -61.459999084472656,93.41000366210938 -61.459999084472656,93.41000366210938 C-61.459999084472656,93.41000366210938 -122.9000015258789,93.41000366210938 -122.9000015258789,93.41000366210938"/></g></g><g transform="matrix(1,0,0,1,214.99899291992188,236.63699340820312)" opacity="1" style="display: block;"><g opacity="1" transform="matrix(1,0,0,1,0,0)"/></g><g transform="matrix(1,0,0,1,215,237)" opacity="1" style="display: block;"><g opacity="1" transform="matrix(0.9999746680259705,0.007115567103028297,-0.007115567103028297,0.9999746680259705,-0.36484527587890625,0.5466079711914062)"><path stroke-linecap="round" stroke-linejoin="round" fill-opacity="0" class="primary" stroke="rgb(18,19,49)" stroke-opacity="1" stroke-width="7" d=" M-45.520999908447266,-29.545000076293945 C-45.520999908447266,-12.062999725341797 -59.694000244140625,2.1089999675750732 -77.1760025024414,2.1089999675750732 C-94.65799713134766,2.1089999675750732 -108.83000183105469,-12.062999725341797 -108.83000183105469,-29.545000076293945 C-108.83000183105469,-47.027000427246094 -94.65799713134766,-61.19900131225586 -77.1760025024414,-61.19900131225586 C-59.694000244140625,-61.19900131225586 -45.520999908447266,-47.027000427246094 -45.520999908447266,-29.545000076293945z"/></g><g opacity="1" transform="matrix(1,0,0,1,154,0)"><path stroke-linecap="round" stroke-linejoin="round" fill-opacity="0" class="primary" stroke="rgb(18,19,49)" stroke-opacity="1" stroke-width="7" d=" M-45.520999908447266,-29.545000076293945 C-45.520999908447266,-12.062999725341797 -59.694000244140625,2.1089999675750732 -77.1760025024414,2.1089999675750732 C-94.65799713134766,2.1089999675750732 -108.83000183105469,-12.062999725341797 -108.83000183105469,-29.545000076293945 C-108.83000183105469,-47.027000427246094 -94.65799713134766,-61.19900131225586 -77.1760025024414,-61.19900131225586 C-59.694000244140625,-61.19900131225586 -45.520999908447266,-47.027000427246094 -45.520999908447266,-29.545000076293945z"/></g></g><g transform="matrix(1,0,0,1,215,237)" opacity="1" style="display: block;"><path class="tertiary" fill="rgb(178,104,54)" fill-opacity="1" d=" M51.439998626708984,-130.6199951171875 C51.439998626708984,-130.6199951171875 47.5,-126 39.63800048828125,-125.84200286865234 C34.29499816894531,-125.73500061035156 27.483999252319336,-128.322998046875 24.125,-130.25 C17.05699920654297,-125.72699737548828 8.652000427246094,-119.62200164794922 0.3779999911785126,-119.84400177001953 C-9.638999938964844,-120.11199951171875 -19.413000106811523,-127.375 -24,-130.25 C-41.625,-120.25 -51.45000076293945,-130.61000061035156 -51.45000076293945,-130.61000061035156 C-58.189998626708984,-120.56999969482422 -61.970001220703125,-108.37999725341797 -61.5099983215332,-95.31999969482422 C-61.5099983215332,-95.31999969482422 -59.56999969482422,-39.540000915527344 -59.56999969482422,-39.540000915527344 C-59.02000045776367,-23.489999771118164 -52.150001525878906,-9.100000381469727 -41.40999984741211,1.2699999809265137 C-30.670000076293945,11.640000343322754 -16.059999465942383,18 0,18 C32.11000061035156,18 58.459999084472656,-7.440000057220459 59.56999969482422,-39.540000915527344 C59.56999969482422,-39.540000915527344 61.5099983215332,-95.31999969482422 61.5099983215332,-95.31999969482422 C61.970001220703125,-108.37999725341797 58.189998626708984,-120.58000183105469 51.439998626708984,-130.6199951171875z"/><path stroke-linecap="round" stroke-linejoin="round" fill-opacity="0" class="primary" stroke="rgb(18,19,49)" stroke-opacity="1" stroke-width="7" d=" M51.439998626708984,-130.6199951171875 C51.439998626708984,-130.6199951171875 47.5,-126 39.63800048828125,-125.84200286865234 C34.29499816894531,-125.73500061035156 27.483999252319336,-128.322998046875 24.125,-130.25 C17.05699920654297,-125.72699737548828 8.652000427246094,-119.62200164794922 0.3779999911785126,-119.84400177001953 C-9.638999938964844,-120.11199951171875 -19.413000106811523,-127.375 -24,-130.25 C-41.625,-120.25 -51.45000076293945,-130.61000061035156 -51.45000076293945,-130.61000061035156 C-58.189998626708984,-120.56999969482422 -61.970001220703125,-108.37999725341797 -61.5099983215332,-95.31999969482422 C-61.5099983215332,-95.31999969482422 -59.56999969482422,-39.540000915527344 -59.56999969482422,-39.540000915527344 C-59.02000045776367,-23.489999771118164 -52.150001525878906,-9.100000381469727 -41.40999984741211,1.2699999809265137 C-30.670000076293945,11.640000343322754 -16.059999465942383,18 0,18 C32.11000061035156,18 58.459999084472656,-7.440000057220459 59.56999969482422,-39.540000915527344 C59.56999969482422,-39.540000915527344 61.5099983215332,-95.31999969482422 61.5099983215332,-95.31999969482422 C61.970001220703125,-108.37999725341797 58.189998626708984,-120.58000183105469 51.439998626708984,-130.6199951171875z"/><g opacity="1" transform="matrix(1,0,0,1,0,0)"/></g></g></g></svg>